<svg width="105" height="94" viewBox="0 0 105 94" fill="none" xmlns="http://www.w3.org/2000/svg">
<path d="M105 47.0108C105 40.0183 96.2892 33.3916 82.9342 29.2822C86.0161 15.5985 84.6464 4.71183 78.6109 1.22637C77.2197 0.408789 75.5931 0.0215149 73.8167 0.0215149V4.81941C74.8013 4.81941 75.5931 5.01305 76.2566 5.37881C79.1673 7.05699 80.4301 13.447 79.4456 21.6658C79.2102 23.6883 78.8249 25.8183 78.354 27.9913C74.1592 26.9586 69.5791 26.1625 64.7635 25.6461C61.8742 21.6658 58.8779 18.0513 55.8602 14.8885C62.8373 8.36942 69.3865 4.79789 73.8382 4.79789V0C67.9525 0 60.2477 4.21698 52.4572 11.5322C44.6667 4.26002 36.9619 0.0860612 31.0762 0.0860612V4.88395C35.5065 4.88395 42.077 8.43397 49.0542 14.91C46.0579 18.0728 43.0616 21.6658 40.215 25.6461C35.3781 26.1625 30.798 26.9586 26.6031 28.0128C26.1109 25.8613 25.747 23.7743 25.4902 21.7734C24.4843 13.5546 25.7256 7.16457 28.615 5.46487C29.257 5.07759 30.0917 4.90547 31.0762 4.90547V0.107576C29.2784 0.107576 27.6519 0.49485 26.2393 1.31243C20.2252 4.79789 18.8769 15.6631 21.9802 29.3037C8.66796 33.4347 0 40.0398 0 47.0108C0 54.0032 8.71076 60.6299 22.0658 64.7393C18.9839 78.423 20.3536 89.3097 26.3891 92.7951C27.7803 93.6127 29.4069 94 31.2046 94C37.0903 94 44.7952 89.783 52.5856 82.4678C60.3761 89.74 68.0809 93.9139 73.9666 93.9139C75.7644 93.9139 77.391 93.5267 78.8035 92.7091C84.8176 89.2236 86.1659 78.3584 83.0626 64.7178C96.332 60.6084 105 53.9817 105 47.0108ZM77.1341 32.6601C76.3422 35.4356 75.3577 38.2971 74.2448 41.1586C73.3673 39.4374 72.447 37.7162 71.4411 35.995C70.4566 34.2737 69.4079 32.5956 68.3592 30.9604C71.3983 31.4122 74.3304 31.9716 77.1341 32.6601ZM67.3318 55.5738C65.6625 58.4784 63.9503 61.2323 62.1739 63.7926C58.9849 64.0723 55.7532 64.2229 52.5 64.2229C49.2682 64.2229 46.0365 64.0723 42.8689 63.8141C41.0925 61.2538 39.3589 58.5214 37.6896 55.6384C36.063 52.8199 34.5862 49.9583 33.2379 47.0753C34.5648 44.1923 36.063 41.3092 37.6682 38.4907C39.3376 35.5862 41.0497 32.8322 42.8261 30.2719C46.0151 29.9922 49.2468 29.8416 52.5 29.8416C55.7318 29.8416 58.9635 29.9922 62.1311 30.2504C63.9075 32.8107 65.6411 35.5431 67.3104 38.4262C68.937 41.2447 70.4138 44.1062 71.7621 46.9892C70.4138 49.8723 68.937 52.7553 67.3318 55.5738ZM74.2448 52.7768C75.4005 55.6599 76.385 58.5429 77.1983 61.3399C74.3946 62.0284 71.4411 62.6093 68.3806 63.0611C69.4293 61.4044 70.478 59.7047 71.4625 57.962C72.447 56.2408 73.3673 54.4981 74.2448 52.7768ZM52.5428 75.7336C50.5524 73.6681 48.562 71.366 46.5929 68.8487C48.5192 68.9348 50.4882 68.9993 52.4786 68.9993C54.4904 68.9993 56.4808 68.9563 58.4285 68.8487C56.5022 71.366 54.5118 73.6681 52.5428 75.7336ZM36.6194 63.0611C33.5803 62.6093 30.6482 62.0499 27.8445 61.3614C28.6364 58.5859 29.6209 55.7244 30.7338 52.8629C31.6113 54.5841 32.5316 56.3053 33.5375 58.0266C34.5434 59.7478 35.5707 61.426 36.6194 63.0611ZM52.4358 18.2879C54.4262 20.3534 56.4166 22.6555 58.3857 25.1728C56.4594 25.0867 54.4904 25.0222 52.5 25.0222C50.4882 25.0222 48.4978 25.0652 46.5501 25.1728C48.4764 22.6555 50.4668 20.3534 52.4358 18.2879ZM36.598 30.9604C35.5493 32.6171 34.5006 34.3168 33.5161 36.0595C32.5316 37.7807 31.6113 39.5019 30.7338 41.2232C29.5781 38.3401 28.5936 35.4571 27.7803 32.6601C30.584 31.9931 33.5375 31.4122 36.598 30.9604ZM17.2289 57.8975C9.65247 54.6487 4.75132 50.3886 4.75132 47.0108C4.75132 43.6329 9.65247 39.3513 17.2289 36.1241C19.0695 35.328 21.0813 34.618 23.1574 33.951C24.3773 38.168 25.9825 42.5571 27.9729 47.0538C26.0039 51.529 24.4201 55.8965 23.2216 60.092C21.1027 59.425 19.0909 58.6935 17.2289 57.8975ZM28.7434 88.6427C25.8327 86.9645 24.5699 80.5745 25.5544 72.3557C25.7899 70.3333 26.1751 68.2032 26.6459 66.0302C30.8408 67.0629 35.4209 67.859 40.2365 68.3754C43.1258 72.3557 46.1221 75.9702 49.1398 79.133C42.1627 85.6521 35.6135 89.2236 31.1618 89.2236C30.1987 89.2021 29.3854 89.0085 28.7434 88.6427ZM79.5098 72.2481C80.5157 80.4669 79.2744 86.8569 76.385 88.5566C75.743 88.9439 74.9083 89.116 73.9238 89.116C69.4935 89.116 62.923 85.566 55.9458 79.09C58.9421 75.9272 61.9384 72.3342 64.785 68.3539C69.6219 67.8375 74.202 67.0414 78.3969 65.9872C78.8891 68.1602 79.2744 70.2472 79.5098 72.2481ZM87.7497 57.8975C85.9091 58.6935 83.8973 59.4035 81.8212 60.0705C80.6013 55.8535 78.9961 51.4644 77.0057 46.9677C78.9747 42.4926 80.5585 38.125 81.757 33.9295C83.8759 34.5965 85.8877 35.328 87.7711 36.1241C95.3475 39.3729 100.249 43.6329 100.249 47.0108C100.227 50.3886 95.3261 54.6702 87.7497 57.8975Z" fill="#81D8F7"/>
<path d="M52.4786 56.8432C57.8804 56.8432 62.2595 52.4411 62.2595 47.0108C62.2595 41.5804 57.8804 37.1783 52.4786 37.1783C47.0768 37.1783 42.6977 41.5804 42.6977 47.0108C42.6977 52.4411 47.0768 56.8432 52.4786 56.8432Z" fill="#81D8F7"/>
</svg>
